<svg width="500" height="293" viewBox="0 0 500 293" fill="none" xmlns="http://www.w3.org/2000/svg">
<path d="M497.887 283.007C495.987 286.451 492.449 288.942 487.354 290.487C482.256 292.033 475.644 292.617 467.683 292.273C451.762 291.587 430.56 287.198 405.546 279.542C355.526 264.232 290.364 235.89 221.924 198.139C153.485 160.388 94.7516 120.391 55.119 86.2491C35.2995 69.1752 20.2774 53.5832 11.2038 40.4835C6.66642 33.9327 3.63306 28.0286 2.22121 22.8921C0.81004 17.758 1.02969 13.4363 2.92928 9.99248C4.82886 6.54865 8.36716 4.05746 13.4625 2.51235C18.5603 0.96651 25.1723 0.382696 33.1336 0.726135C49.0541 1.41293 70.2559 5.80168 95.2701 13.4578C145.291 28.7675 210.452 57.1098 278.892 94.8604C347.331 132.611 406.064 172.608 445.697 206.75C465.517 223.824 480.539 239.416 489.612 252.516C494.15 259.067 497.183 264.971 498.595 270.107C500.006 275.241 499.786 279.563 497.887 283.007Z" stroke="black"/>
</svg>
